<svg xmlns="http://www.w3.org/2000/svg" width="24.687" height="25" viewBox="0 0 24.687 25">
  <metadata><?xpacket begin="﻿" id="W5M0MpCehiHzreSzNTczkc9d"?>
<x:xmpmeta xmlns:x="adobe:ns:meta/" x:xmptk="Adobe XMP Core 5.6-c138 79.159824, 2016/09/14-01:09:01        ">
   <rdf:RDF xmlns:rdf="http://www.w3.org/1999/02/22-rdf-syntax-ns#">
      <rdf:Description rdf:about=""/>
   </rdf:RDF>
</x:xmpmeta>
                                                                                                    
                                                                                                    
                                                                                                    
                                                                                                    
                                                                                                    
                                                                                                    
                                                                                                    
                                                                                                    
                                                                                                    
                                                                                                    
                                                                                                    
                                                                                                    
                                                                                                    
                                                                                                    
                                                                                                    
                                                                                                    
                                                                                                    
                                                                                                    
                                                                                                    
                                                                                                    
                           
<?xpacket end="w"?></metadata>
<defs>
    <style>
      .cls-1 {
        fill: #bebebe;
        fill-rule: evenodd;
      }
    </style>
  </defs>
  <path class="cls-1" d="M958.678,8506.5a3.466,3.466,0,1,1-3.466-3.51A3.488,3.488,0,0,1,958.678,8506.5Zm2.634-12.5h-12.2a6.284,6.284,0,0,0-6.238,6.32v12.36a6.284,6.284,0,0,0,6.238,6.32h12.2a6.282,6.282,0,0,0,6.238-6.32v-12.36A6.282,6.282,0,0,0,961.312,8494Zm-6.1,18.8a6.315,6.315,0,0,1-3.956-11.16,7.325,7.325,0,0,1,.732-0.53c0.086-.05.172-0.1,0.261-0.15a6.173,6.173,0,0,1,.826-0.38,6.2,6.2,0,0,1,4.275,0,6.005,6.005,0,0,1,.826.38c0.089,0.05.175,0.1,0.261,0.15a7,7,0,0,1,.732.53A6.315,6.315,0,0,1,955.212,8512.8Zm7.9-12.19a1.66,1.66,0,1,1,1.639-1.66A1.648,1.648,0,0,1,963.114,8500.61Z" transform="translate(-942.875 -8494)"/>
</svg>
