<svg id="Layer_1" data-name="Layer 1" xmlns="http://www.w3.org/2000/svg" xmlns:xlink="http://www.w3.org/1999/xlink" viewBox="0 0 113.67 28"><defs><style>.cls-1{fill:url(#linear-gradient);}.cls-2{fill:url(#linear-gradient-2);}.cls-3{fill:url(#linear-gradient-3);}.cls-4{fill:url(#linear-gradient-4);}.cls-5{fill:url(#linear-gradient-5);}.cls-6{fill:url(#linear-gradient-6);}.cls-7{fill:url(#linear-gradient-7);}</style><linearGradient id="linear-gradient" x1="1160.83" y1="-2277.57" x2="1100.93" y2="-2251.16" gradientTransform="translate(1194.38 -2222.34) rotate(180)" gradientUnits="userSpaceOnUse"><stop offset="0" stop-color="#7c53a1"/><stop offset="0.55" stop-color="#3e84b6"/><stop offset="1" stop-color="#00a89d"/></linearGradient><linearGradient id="linear-gradient-2" x1="1169.42" y1="-2258.09" x2="1109.52" y2="-2231.68" xlink:href="#linear-gradient"/><linearGradient id="linear-gradient-3" x1="1163.57" y1="-2271.36" x2="1103.67" y2="-2244.95" xlink:href="#linear-gradient"/><linearGradient id="linear-gradient-4" x1="1183.38" y1="-2226.43" x2="1123.48" y2="-2200.02" xlink:href="#linear-gradient"/><linearGradient id="linear-gradient-5" x1="1174.79" y1="-2245.91" x2="1114.89" y2="-2219.5" xlink:href="#linear-gradient"/><linearGradient id="linear-gradient-6" x1="1172.62" y1="-2251.8" x2="1112.44" y2="-2225.27" xlink:href="#linear-gradient"/><linearGradient id="linear-gradient-7" x1="1181.46" y1="-2231.84" x2="1121.56" y2="-2205.43" xlink:href="#linear-gradient"/></defs><title>ChS_footer</title><path class="cls-1" d="M101.49,23.27H99.84a2.37,2.37,0,0,0,0,4.73h1.65a2.37,2.37,0,0,0,0-4.73Z" transform="translate(-0.16 0)"/><path class="cls-2" d="M99.84,4.73h1.65a2.37,2.37,0,0,0,0-4.73H99.84a2.37,2.37,0,0,0,0,4.73Z" transform="translate(-0.16 0)"/><path class="cls-3" d="M110,16.13h1.43a2.37,2.37,0,0,0,0-4.73H110a2.37,2.37,0,0,0,0,4.73Z" transform="translate(-0.16 0)"/><path class="cls-4" d="M14.07,4.73h1.65a2.37,2.37,0,1,0,0-4.73H14.07a2.37,2.37,0,0,0,0,4.73Z" transform="translate(-0.16 0)"/><path class="cls-5" d="M15.72,23.27H14.07a2.37,2.37,0,0,0,0,4.73h1.65a2.37,2.37,0,1,0,0-4.73Z" transform="translate(-0.16 0)"/><path class="cls-6" d="M10.89,16.13h17a12.1,12.1,0,0,0,1.05,3.31,14.18,14.18,0,0,0,2.41,3.83H22.15a2.37,2.37,0,1,0,0,4.73H41.79a13.63,13.63,0,0,0,5.46-1.1,14,14,0,0,0,4.46-3,2.31,2.31,0,0,0-3.27-3.23,8.83,8.83,0,0,1-3,2,9.46,9.46,0,0,1-3.62.69,9.35,9.35,0,0,1-3.58-.69,9.17,9.17,0,0,1-3-2,9.37,9.37,0,0,1-2.06-3.06,9.27,9.27,0,0,1-.71-3.6,9.13,9.13,0,0,1,.71-3.58,9.71,9.71,0,0,1,5.1-5.1,9.14,9.14,0,0,1,3.58-.71,9.24,9.24,0,0,1,3.62.71,14.83,14.83,0,0,1,3,2.06L61.93,23.68l.17.2a13.38,13.38,0,0,0,4.46,3A13.63,13.63,0,0,0,72,28H91.48a2.37,2.37,0,1,0,0-4.73h-9a14.18,14.18,0,0,0,2.41-3.83,13.42,13.42,0,0,0,.94-3.31h17.25a2.37,2.37,0,0,0,0-4.73H85.78a13.4,13.4,0,0,0-.86-2.84,14.18,14.18,0,0,0-2.41-3.83h9a2.37,2.37,0,1,0,0-4.73H72a13.63,13.63,0,0,0-5.46,1.1,14,14,0,0,0-4.46,3,2.31,2.31,0,0,0,3.27,3.23,8.83,8.83,0,0,1,3-2A9.46,9.46,0,0,1,72,4.62a9.77,9.77,0,0,1,1.36.09h.06a9.14,9.14,0,0,1,5.19,2.63,9.37,9.37,0,0,1,2.06,3.06A9.27,9.27,0,0,1,81.4,14a9.13,9.13,0,0,1-.71,3.58,9.71,9.71,0,0,1-5.1,5.1,9.14,9.14,0,0,1-3.58.71,9.24,9.24,0,0,1-3.62-.71,14.83,14.83,0,0,1-3-2.06L51.85,4.28h0l-.12-.15a13.38,13.38,0,0,0-4.46-3A13.63,13.63,0,0,0,41.79,0H22.15a2.37,2.37,0,1,0,0,4.73H31.3a17.5,17.5,0,0,0-2.41,3.83c-.25.58-.63,2.23-.8,2.84H10.89a2.37,2.37,0,1,0,0,4.73Z" transform="translate(-0.16 0)"/><path class="cls-7" d="M2.53,16.13H4A2.37,2.37,0,1,0,4,11.4H2.53a2.37,2.37,0,1,0,0,4.73Z" transform="translate(-0.16 0)"/></svg>