<svg xmlns="http://www.w3.org/2000/svg" width="14" height="14" viewBox="0 0 14 14">
  <metadata><?xpacket begin="﻿" id="W5M0MpCehiHzreSzNTczkc9d"?>
<x:xmpmeta xmlns:x="adobe:ns:meta/" x:xmptk="Adobe XMP Core 5.6-c138 79.159824, 2016/09/14-01:09:01        ">
   <rdf:RDF xmlns:rdf="http://www.w3.org/1999/02/22-rdf-syntax-ns#">
      <rdf:Description rdf:about=""/>
   </rdf:RDF>
</x:xmpmeta>
                                                                                                    
                                                                                                    
                                                                                                    
                                                                                                    
                                                                                                    
                                                                                                    
                                                                                                    
                                                                                                    
                                                                                                    
                                                                                                    
                                                                                                    
                                                                                                    
                                                                                                    
                                                                                                    
                                                                                                    
                                                                                                    
                                                                                                    
                                                                                                    
                                                                                                    
                                                                                                    
                           
<?xpacket end="w"?></metadata>
<defs>
    <style>
      .cls-1 {
        fill: #bebebe;
        fill-rule: evenodd;
      }
    </style>
  </defs>
  <path class="cls-1" d="M1815.97,73a1.97,1.97,0,1,1-1.97-1.966A1.968,1.968,0,0,1,1815.97,73Zm1.49-7h-6.92a3.545,3.545,0,0,0-3.54,3.54v6.921a3.545,3.545,0,0,0,3.54,3.54h6.92a3.545,3.545,0,0,0,3.54-3.54V69.54A3.545,3.545,0,0,0,1817.46,66ZM1814,76.53a3.527,3.527,0,0,1-2.24-6.253,4.34,4.34,0,0,1,.41-0.3q0.075-.045.15-0.085a3.877,3.877,0,0,1,.47-0.212,3.538,3.538,0,0,1,1.21-.214,3.454,3.454,0,0,1,1.21.214,3.877,3.877,0,0,1,.47.212q0.075,0.04.15,0.085a4.34,4.34,0,0,1,.41.3A3.527,3.527,0,0,1,1814,76.53Zm4.48-6.827a0.93,0.93,0,1,1,.93-0.929A0.932,0.932,0,0,1,1818.48,69.7Z" transform="translate(-1807 -66)"/>
</svg>
