<svg id="Layer_1" data-name="Layer 1" xmlns="http://www.w3.org/2000/svg" xmlns:xlink="http://www.w3.org/1999/xlink" viewBox="0 0 122.5 53"><defs><style>.cls-1{fill:url(#linear-gradient);}.cls-2{fill:url(#linear-gradient-2);}.cls-3{fill:url(#linear-gradient-3);}.cls-4{fill:url(#linear-gradient-4);}.cls-5{fill:url(#linear-gradient-5);}.cls-6{fill:url(#linear-gradient-6);}.cls-7{fill:url(#linear-gradient-7);}.cls-8{fill:#404041;}</style><linearGradient id="linear-gradient" x1="1157.54" y1="-2238.19" x2="1114.33" y2="-2219.13" gradientTransform="translate(1206.38 -2198.34) rotate(180)" gradientUnits="userSpaceOnUse"><stop offset="0" stop-color="#7c53a1"/><stop offset="0.55" stop-color="#3e84b6"/><stop offset="1" stop-color="#00a89d"/></linearGradient><linearGradient id="linear-gradient-2" x1="1163.74" y1="-2224.13" x2="1120.52" y2="-2205.08" xlink:href="#linear-gradient"/><linearGradient id="linear-gradient-3" x1="1159.52" y1="-2233.71" x2="1116.3" y2="-2214.65" xlink:href="#linear-gradient"/><linearGradient id="linear-gradient-4" x1="1173.81" y1="-2201.29" x2="1130.6" y2="-2182.23" xlink:href="#linear-gradient"/><linearGradient id="linear-gradient-5" x1="1167.61" y1="-2215.34" x2="1124.4" y2="-2196.29" xlink:href="#linear-gradient"/><linearGradient id="linear-gradient-6" x1="1166.05" y1="-2219.6" x2="1122.63" y2="-2200.45" xlink:href="#linear-gradient"/><linearGradient id="linear-gradient-7" x1="1172.42" y1="-2205.19" x2="1129.21" y2="-2186.14" xlink:href="#linear-gradient"/></defs><title>logo main</title><path class="cls-1" d="M97.85,16.79H96.66a1.71,1.71,0,1,0,0,3.41h1.19a1.71,1.71,0,0,0,0-3.41Z" transform="translate(-1.5)"/><path class="cls-2" d="M96.66,3.41h1.19a1.71,1.71,0,0,0,0-3.41H96.66a1.71,1.71,0,1,0,0,3.41Z" transform="translate(-1.5)"/><path class="cls-3" d="M104,11.64h1a1.71,1.71,0,1,0,0-3.41h-1a1.71,1.71,0,0,0,0,3.41Z" transform="translate(-1.5)"/><path class="cls-4" d="M34.78,3.41H36A1.71,1.71,0,0,0,36,0H34.78a1.71,1.71,0,0,0,0,3.41Z" transform="translate(-1.5)"/><path class="cls-5" d="M36,16.79H34.78a1.71,1.71,0,0,0,0,3.41H36a1.71,1.71,0,0,0,0-3.41Z" transform="translate(-1.5)"/><path class="cls-6" d="M32.48,11.64H44.71A8.73,8.73,0,0,0,45.47,14a10.23,10.23,0,0,0,1.74,2.76h-6.6a1.71,1.71,0,0,0,0,3.41H54.78a9.83,9.83,0,0,0,3.94-.79,10.11,10.11,0,0,0,3.22-2.18,1.67,1.67,0,0,0-2.36-2.33,6.37,6.37,0,0,1-2.19,1.47,6.82,6.82,0,0,1-2.61.5,6.75,6.75,0,0,1-2.58-.5A6.62,6.62,0,0,1,50,14.9a6.76,6.76,0,0,1-1.48-2.21A6.69,6.69,0,0,1,48,10.1a6.59,6.59,0,0,1,.51-2.58A7,7,0,0,1,52.2,3.84a6.59,6.59,0,0,1,2.58-.51,6.67,6.67,0,0,1,2.61.51,10.7,10.7,0,0,1,2.19,1.48l9.73,11.76.12.15a9.66,9.66,0,0,0,3.22,2.18,9.83,9.83,0,0,0,3.94.79h14a1.71,1.71,0,0,0,0-3.41H84.16A10.23,10.23,0,0,0,85.9,14a9.69,9.69,0,0,0,.68-2.39H99a1.71,1.71,0,1,0,0-3.41H86.52a9.67,9.67,0,0,0-.62-2.05,10.23,10.23,0,0,0-1.74-2.76h6.47a1.71,1.71,0,0,0,0-3.41h-14a9.83,9.83,0,0,0-3.94.79A10.11,10.11,0,0,0,69.43,3,1.67,1.67,0,0,0,71.79,5.3,6.37,6.37,0,0,1,74,3.83a6.82,6.82,0,0,1,2.61-.5,7,7,0,0,1,1,.07h0a6.59,6.59,0,0,1,3.75,1.9,6.76,6.76,0,0,1,1.48,2.21,6.69,6.69,0,0,1,.51,2.59,6.59,6.59,0,0,1-.51,2.58,7,7,0,0,1-3.68,3.68,6.59,6.59,0,0,1-2.58.51A6.67,6.67,0,0,1,74,16.36a10.7,10.7,0,0,1-2.19-1.48L62,3.08h0L61.94,3A9.66,9.66,0,0,0,58.72.79,9.83,9.83,0,0,0,54.78,0H40.61a1.71,1.71,0,0,0,0,3.41h6.6a12.63,12.63,0,0,0-1.74,2.76c-.18.42-.46,1.61-.58,2.05H32.48a1.71,1.71,0,0,0,0,3.41Z" transform="translate(-1.5)"/><path class="cls-7" d="M26.45,11.64h1a1.71,1.71,0,1,0,0-3.41h-1a1.71,1.71,0,0,0,0,3.41Z" transform="translate(-1.5)"/><path class="cls-8" d="M12.8,52.27A9.55,9.55,0,0,1,8.86,53c-4.2,0-7.37-2.65-7.37-7.54A7.42,7.42,0,0,1,9.28,37.6a8,8,0,0,1,3.54.66l-.46,1.57a7,7,0,0,0-3-.62c-3.49,0-5.82,2.23-5.82,6.15,0,3.65,2.1,6,5.73,6a7.7,7.7,0,0,0,3.14-.62Z" transform="translate(-1.5)"/><path class="cls-8" d="M15.14,37.05h1.95v6.68h0a3.61,3.61,0,0,1,1.39-1.37,4,4,0,0,1,2-.55c1.44,0,3.74.88,3.74,4.58v6.37H22.31V46.61c0-1.73-.64-3.19-2.48-3.19a2.8,2.8,0,0,0-2.61,1.95,2.36,2.36,0,0,0-.13.93v6.46H15.14Z" transform="translate(-1.5)"/><path class="cls-8" d="M27.22,50.41a6.82,6.82,0,0,0,3.45,1c2,0,3.12-1,3.12-2.54s-.8-2.19-2.81-3C28.55,45,27,43.75,27,41.65c0-2.32,1.92-4,4.82-4a6.77,6.77,0,0,1,3.3.73l-.53,1.57a5.94,5.94,0,0,0-2.83-.71c-2,0-2.81,1.22-2.81,2.23,0,1.39.91,2.08,3,2.88,2.52,1,3.8,2.19,3.8,4.38S34.05,53,30.54,53a7.71,7.71,0,0,1-3.8-1Z" transform="translate(-1.5)"/><path class="cls-8" d="M45.86,37.85v8.83c0,3.34,1.48,4.76,3.47,4.76C51.54,51.43,53,50,53,46.67V37.85h1.95v8.69c0,4.58-2.41,6.46-5.64,6.46-3.05,0-5.35-1.75-5.35-6.37V37.85Z" transform="translate(-1.5)"/><path class="cls-8" d="M58.24,37.85h1.92V45h.07c.4-.58.8-1.11,1.17-1.59L66,37.85h2.39L63,44.17l5.82,8.58H66.5l-4.91-7.32-1.42,1.64v5.68H58.24Z" transform="translate(-1.5)"/><path class="cls-8" d="M70.23,38a20,20,0,0,1,3.69-.31c2.06,0,3.38.38,4.31,1.22a3.71,3.71,0,0,1,1.17,2.83,3.91,3.91,0,0,1-2.81,3.8v.07c1.15.4,1.84,1.46,2.19,3a23.72,23.72,0,0,0,1.15,4.09H78a19.33,19.33,0,0,1-1-3.56c-.44-2.06-1.24-2.83-3-2.9H72.16v6.46H70.23Zm1.92,6.79h2c2.06,0,3.36-1.13,3.36-2.83,0-1.92-1.39-2.77-3.43-2.79a7.91,7.91,0,0,0-1.9.18Z" transform="translate(-1.5)"/><path class="cls-8" d="M84.65,48.07,83.1,52.76h-2l5.07-14.91H88.5l5.09,14.91H91.53l-1.59-4.69Zm4.89-1.5-1.46-4.29c-.33-1-.55-1.86-.77-2.72h0c-.22.88-.46,1.79-.75,2.7l-1.46,4.31Z" transform="translate(-1.5)"/><path class="cls-8" d="M97.7,37.85V52.76H95.78V37.85Z" transform="translate(-1.5)"/><path class="cls-8" d="M101.06,52.76V37.85h2.1l4.78,7.54a42.21,42.21,0,0,1,2.68,4.84l0,0c-.18-2-.22-3.8-.22-6.13V37.85h1.81V52.76h-1.95l-4.73-7.56a47.28,47.28,0,0,1-2.79-5l-.07,0c.11,1.88.15,3.67.15,6.15v6.37Z" transform="translate(-1.5)"/><path class="cls-8" d="M123.34,45.77h-5.8v5.38H124v1.61h-8.38V37.85h8.05v1.61h-6.13v4.71h5.8Z" transform="translate(-1.5)"/></svg>