<svg id="Layer_1" data-name="Layer 1" xmlns="http://www.w3.org/2000/svg" xmlns:xlink="http://www.w3.org/1999/xlink" viewBox="0 0 61 15.03"><defs><style>.cls-1{fill:none;}.cls-2{clip-path:url(#clip-path);}.cls-3{fill:#6a2b91;}.cls-4{clip-path:url(#clip-path-2);}.cls-5{clip-path:url(#clip-path-3);}.cls-6{clip-path:url(#clip-path-4);}.cls-7{fill:#049480;}.cls-8{fill:#059481;}.cls-9{fill:#069381;}.cls-10{fill:#079381;}.cls-11{fill:#089381;}.cls-12{fill:#099382;}.cls-13{fill:#0a9282;}.cls-14{fill:#0b9282;}.cls-15{fill:#0b9283;}.cls-16{fill:#0c9283;}.cls-17{fill:#0d9183;}.cls-18{fill:#0d9184;}.cls-19{fill:#0e9184;}.cls-20{fill:#0e9084;}.cls-21{fill:#0f9085;}.cls-22{fill:#109085;}.cls-23{fill:#118f86;}.cls-24{fill:#128f86;}.cls-25{fill:#128e87;}.cls-26{fill:#138e87;}.cls-27{clip-path:url(#clip-path-5);}.cls-28{fill:#019480;}.cls-29{clip-path:url(#clip-path-6);}.cls-30{fill:#138e88;}.cls-31{fill:#148d88;}.cls-32{fill:#158d89;}.cls-33{fill:#158c89;}.cls-34{fill:#168c89;}.cls-35{fill:#168c8a;}.cls-36{fill:#178b8a;}.cls-37{fill:#188b8b;}.cls-38{fill:#188a8b;}.cls-39{fill:#198a8b;}.cls-40{fill:#198a8c;}.cls-41{fill:#1a898c;}.cls-42{fill:#1a888d;}.cls-43{fill:#1b888d;}.cls-44{fill:#1c878e;}.cls-45{fill:#1d878e;}.cls-46{fill:#1e868f;}.cls-47{fill:#1f868f;}.cls-48{fill:#208590;}.cls-49{fill:#218590;}.cls-50{fill:#218490;}.cls-51{fill:#228491;}.cls-52{fill:#238491;}.cls-53{fill:#238391;}.cls-54{fill:#248392;}.cls-55{fill:#258292;}.cls-56{fill:#268293;}.cls-57{fill:#278193;}.cls-58{fill:#288194;}.cls-59{fill:#288094;}.cls-60{fill:#298094;}.cls-61{fill:#297f95;}.cls-62{fill:#2a7f95;}.cls-63{fill:#2b7f95;}.cls-64{fill:#2b7e96;}.cls-65{fill:#2c7e96;}.cls-66{fill:#2d7d96;}.cls-67{fill:#2d7d97;}.cls-68{fill:#2e7c97;}.cls-69{fill:#2f7c98;}.cls-70{fill:#2f7b98;}.cls-71{fill:#307b98;}.cls-72{fill:#317a99;}.cls-73{fill:#327999;}.cls-74{fill:#32799a;}.cls-75{fill:#33789a;}.cls-76{fill:#34789a;}.cls-77{fill:#34779b;}.cls-78{fill:#35779b;}.cls-79{fill:#35779c;}.cls-80{fill:#36769c;}.cls-81{fill:#37759d;}.cls-82{fill:#38759d;}.cls-83{fill:#38749d;}.cls-84{fill:#39749e;}.cls-85{fill:#3a739e;}.cls-86{fill:#3b729f;}.cls-87{fill:#3c729f;}.cls-88{fill:#3c719f;}.cls-89{fill:#3d71a0;}.cls-90{fill:#3e70a0;}.cls-91{fill:#3f6fa1;}.cls-92{fill:#406ea1;}.cls-93{fill:#416ea2;}.cls-94{fill:#416da2;}.cls-95{fill:#426ca2;}.cls-96{fill:#436ba2;}.cls-97{fill:#436ba1;}.cls-98{fill:#446aa1;}.cls-99{fill:#4469a1;}.cls-100{fill:#4568a1;}.cls-101{fill:#4667a1;}.cls-102{fill:#4666a0;}.cls-103{fill:#4766a0;}.cls-104{fill:#4765a0;}.cls-105{fill:#4864a0;}.cls-106{fill:#4863a0;}.cls-107{fill:#4963a0;}.cls-108{fill:#49629f;}.cls-109{fill:#4a619f;}.cls-110{fill:#4a609f;}.cls-111{fill:#4b5f9f;}.cls-112{fill:#4c5e9f;}.cls-113{fill:#4c5e9e;}.cls-114{fill:#4c5d9e;}.cls-115{fill:#4d5c9e;}.cls-116{fill:#4e5b9e;}.cls-117{fill:#4e5a9e;}.cls-118{fill:#4f5a9e;}.cls-119{fill:#4f599d;}.cls-120{fill:#50589d;}.cls-121{fill:#50579d;}.cls-122{fill:#51569d;}.cls-123{fill:#52559c;}.cls-124{fill:#52549c;}.cls-125{fill:#53549c;}.cls-126{fill:#53539c;}.cls-127{fill:#53529c;}.cls-128{fill:#54529c;}.cls-129{fill:#54519b;}.cls-130{fill:#55519b;}.cls-131{fill:#55509b;}.cls-132{fill:#554f9b;}.cls-133{fill:#564f9b;}.cls-134{fill:#564e9b;}.cls-135{fill:#574d9a;}.cls-136{fill:#584c9a;}.cls-137{fill:#584b9a;}.cls-138{fill:#594a9a;}.cls-139{fill:#594999;}.cls-140{fill:#5a4899;}.cls-141{fill:#5b4799;}.cls-142{fill:#5b4699;}.cls-143{fill:#5c4699;}.cls-144{fill:#5c4598;}.cls-145{fill:#5c4498;}.cls-146{fill:#5d4498;}.cls-147{fill:#5d4398;}.cls-148{fill:#5e4298;}.cls-149{fill:#5e4297;}.cls-150{fill:#5e4197;}.cls-151{fill:#5f4097;}.cls-152{fill:#603f97;}.cls-153{fill:#603e97;}.cls-154{fill:#603d96;}.cls-155{fill:#613d96;}.cls-156{fill:#613c96;}.cls-157{fill:#623b96;}.cls-158{fill:#623a95;}.cls-159{fill:#633995;}.cls-160{fill:#643895;}.cls-161{fill:#643795;}.cls-162{fill:#653694;}.cls-163{fill:#653594;}.cls-164{fill:#663494;}.cls-165{fill:#673393;}.cls-166{fill:#673293;}.cls-167{fill:#673193;}.cls-168{fill:#683193;}.cls-169{fill:#683093;}.cls-170{fill:#692f92;}.cls-171{fill:#692e92;}.cls-172{fill:#6a2d92;}.cls-173{fill:#6a2c92;}.cls-174{clip-path:url(#clip-path-7);}</style><clipPath id="clip-path"><path class="cls-1" d="M54.37,12.49h-.89a1.27,1.27,0,0,0,0,2.54h.89a1.27,1.27,0,0,0,0-2.54Z"/></clipPath><clipPath id="clip-path-2"><path class="cls-1" d="M53.49,2.54h.89a1.27,1.27,0,0,0,0-2.54h-.89a1.27,1.27,0,0,0,0,2.54Z"/></clipPath><clipPath id="clip-path-3"><path class="cls-1" d="M59,8.66h.77a1.27,1.27,0,0,0,0-2.54H59a1.27,1.27,0,0,0,0,2.54Z"/></clipPath><clipPath id="clip-path-4"><path class="cls-1" d="M7.46,2.54h.89A1.27,1.27,0,0,0,8.35,0H7.46a1.27,1.27,0,1,0,0,2.54Z"/></clipPath><clipPath id="clip-path-5"><path class="cls-1" d="M8.35,12.49H7.46a1.27,1.27,0,1,0,0,2.54h.89a1.27,1.27,0,0,0,0-2.54Z"/></clipPath><clipPath id="clip-path-6"><path class="cls-1" d="M5.75,8.66h9.1a6.49,6.49,0,0,0,.56,1.78,7.61,7.61,0,0,0,1.29,2.05H11.8a1.27,1.27,0,1,0,0,2.54H22.34a7.31,7.31,0,0,0,2.93-.59,7.52,7.52,0,0,0,2.39-1.62,1.24,1.24,0,0,0-1.75-1.73,4.74,4.74,0,0,1-1.63,1.09,5.08,5.08,0,0,1-1.94.37,5,5,0,0,1-1.92-.37,4.92,4.92,0,0,1-1.63-1.09,5,5,0,0,1-1.1-1.64,5,5,0,0,1-.38-1.93,4.9,4.9,0,0,1,.38-1.92,5.21,5.21,0,0,1,2.73-2.73,4.9,4.9,0,0,1,1.92-.38,5,5,0,0,1,1.94.38A8,8,0,0,1,25.91,4l7.23,8.74.09.11a7.18,7.18,0,0,0,2.39,1.62,7.31,7.31,0,0,0,2.93.59H49a1.27,1.27,0,0,0,0-2.54H44.19a7.61,7.61,0,0,0,1.29-2.05A7.2,7.2,0,0,0,46,8.66h9.26a1.27,1.27,0,0,0,0-2.54h-9.3a7.19,7.19,0,0,0-.46-1.53,7.61,7.61,0,0,0-1.29-2.05H49A1.27,1.27,0,0,0,49,0H38.56a7.31,7.31,0,0,0-2.93.59,7.52,7.52,0,0,0-2.39,1.62A1.24,1.24,0,0,0,35,3.94a4.74,4.74,0,0,1,1.63-1.09,5.08,5.08,0,0,1,1.94-.37,5.24,5.24,0,0,1,.73.05h0a4.9,4.9,0,0,1,2.79,1.41,5,5,0,0,1,1.1,1.64,5,5,0,0,1,.38,1.93,4.9,4.9,0,0,1-.38,1.92,5.21,5.21,0,0,1-2.73,2.73,4.9,4.9,0,0,1-1.92.38,5,5,0,0,1-1.94-.38A8,8,0,0,1,35,11.06L27.74,2.29h0l-.07-.08A7.18,7.18,0,0,0,25.27.59,7.31,7.31,0,0,0,22.34,0H11.8a1.27,1.27,0,0,0,0,2.54h4.91a9.39,9.39,0,0,0-1.29,2.05c-.13.31-.34,1.2-.43,1.53H5.75a1.27,1.27,0,1,0,0,2.54Z"/></clipPath><clipPath id="clip-path-7"><path class="cls-1" d="M1.27,8.66H2A1.27,1.27,0,1,0,2,6.12H1.27a1.27,1.27,0,1,0,0,2.54Z"/></clipPath></defs><title>Untitled-6</title><g class="cls-2"><rect class="cls-3" x="52.22" y="12.49" width="3.42" height="2.54"/></g><g class="cls-4"><rect class="cls-3" x="52.22" width="3.42" height="2.54"/></g><g class="cls-5"><rect class="cls-3" x="57.7" y="6.12" width="3.3" height="2.54"/></g><g class="cls-6"><polygon class="cls-7" points="6.19 2.12 6.38 2.54 6.19 2.54 6.19 2.12"/><polygon class="cls-8" points="6.19 1.65 6.58 2.54 6.38 2.54 6.19 2.12 6.19 1.65"/><polygon class="cls-9" points="6.19 1.18 6.79 2.54 6.58 2.54 6.19 1.65 6.19 1.18"/><polygon class="cls-10" points="6.19 0.71 7 2.54 6.79 2.54 6.19 1.18 6.19 0.71"/><polygon class="cls-11" points="6.19 0.25 7.2 2.54 7 2.54 6.19 0.71 6.19 0.25"/><polygon class="cls-12" points="6.29 0 7.41 2.54 7.2 2.54 6.19 0.25 6.19 0 6.29 0"/><polygon class="cls-13" points="6.5 0 7.62 2.54 7.41 2.54 6.29 0 6.5 0"/><polygon class="cls-14" points="6.71 0 7.82 2.54 7.62 2.54 6.5 0 6.71 0"/><polygon class="cls-15" points="6.91 0 8.03 2.54 7.82 2.54 6.71 0 6.91 0"/><polygon class="cls-16" points="7.12 0 8.24 2.54 8.03 2.54 6.91 0 7.12 0"/><polygon class="cls-17" points="7.32 0 8.44 2.54 8.24 2.54 7.12 0 7.32 0"/><polygon class="cls-18" points="7.53 0 8.65 2.54 8.44 2.54 7.32 0 7.53 0"/><polygon class="cls-19" points="7.74 0 8.86 2.54 8.65 2.54 7.53 0 7.74 0"/><polygon class="cls-20" points="7.94 0 9.06 2.54 8.86 2.54 7.74 0 7.94 0"/><polygon class="cls-21" points="8.15 0 9.27 2.54 9.06 2.54 7.94 0 8.15 0"/><polygon class="cls-21" points="8.36 0 9.48 2.54 9.27 2.54 8.15 0 8.36 0"/><polygon class="cls-22" points="8.56 0 9.62 2.39 9.62 2.54 9.48 2.54 8.36 0 8.56 0"/><polygon class="cls-23" points="8.77 0 9.62 1.92 9.62 2.39 8.56 0 8.77 0"/><polygon class="cls-23" points="8.98 0 9.62 1.46 9.62 1.92 8.77 0 8.98 0"/><polygon class="cls-24" points="9.18 0 9.62 0.99 9.62 1.46 8.98 0 9.18 0"/><polygon class="cls-25" points="9.39 0 9.62 0.52 9.62 0.99 9.18 0 9.39 0"/><polygon class="cls-25" points="9.6 0 9.62 0.05 9.62 0.52 9.39 0 9.6 0"/><polygon class="cls-26" points="9.62 0.05 9.6 0 9.62 0 9.62 0.05"/></g><g class="cls-27"><rect class="cls-28" x="6.19" y="12.49" width="3.42" height="2.54"/></g><g class="cls-29"><polygon class="cls-28" points="4.49 2.22 5.41 1.81 11.24 15.03 4.49 15.03 4.49 2.22"/><polygon class="cls-28" points="5.41 1.81 5.59 1.74 11.45 15.03 11.24 15.03 5.41 1.81"/><polygon class="cls-7" points="5.59 1.74 5.76 1.66 11.65 15.03 11.45 15.03 5.59 1.74"/><polygon class="cls-8" points="5.76 1.66 5.93 1.58 11.86 15.03 11.65 15.03 5.76 1.66"/><polygon class="cls-9" points="5.93 1.58 6.11 1.51 12.07 15.03 11.86 15.03 5.93 1.58"/><polygon class="cls-10" points="6.11 1.51 6.28 1.43 12.28 15.03 12.07 15.03 6.11 1.51"/><polygon class="cls-11" points="6.28 1.43 6.46 1.35 12.48 15.03 12.28 15.03 6.28 1.43"/><polygon class="cls-12" points="6.46 1.35 6.63 1.28 12.69 15.03 12.48 15.03 6.46 1.35"/><polygon class="cls-13" points="6.63 1.28 6.8 1.2 12.9 15.03 12.69 15.03 6.63 1.28"/><polygon class="cls-14" points="6.8 1.2 6.98 1.12 13.11 15.03 12.9 15.03 6.8 1.2"/><polygon class="cls-15" points="6.98 1.12 7.15 1.05 13.31 15.03 13.11 15.03 6.98 1.12"/><polygon class="cls-16" points="7.15 1.05 7.32 0.97 13.52 15.03 13.31 15.03 7.15 1.05"/><polygon class="cls-17" points="7.32 0.97 7.5 0.89 13.73 15.03 13.52 15.03 7.32 0.97"/><polygon class="cls-18" points="7.5 0.89 7.67 0.82 13.94 15.03 13.73 15.03 7.5 0.89"/><polygon class="cls-19" points="7.67 0.82 7.84 0.74 14.14 15.03 13.94 15.03 7.67 0.82"/><polygon class="cls-20" points="7.84 0.74 8.02 0.66 14.35 15.03 14.14 15.03 7.84 0.74"/><polygon class="cls-21" points="8.02 0.66 8.19 0.59 14.56 15.03 14.35 15.03 8.02 0.66"/><polygon class="cls-21" points="8.19 0.59 8.37 0.51 14.77 15.03 14.56 15.03 8.19 0.59"/><polygon class="cls-22" points="8.37 0.51 8.54 0.43 14.97 15.03 14.77 15.03 8.37 0.51"/><polygon class="cls-23" points="8.54 0.43 8.71 0.36 15.18 15.03 14.97 15.03 8.54 0.43"/><polygon class="cls-23" points="8.71 0.36 8.89 0.28 15.39 15.03 15.18 15.03 8.71 0.36"/><polygon class="cls-24" points="8.89 0.28 9.06 0.2 15.6 15.03 15.39 15.03 8.89 0.28"/><polygon class="cls-25" points="9.06 0.2 9.23 0.13 15.8 15.03 15.6 15.03 9.06 0.2"/><polygon class="cls-25" points="9.23 0.13 9.41 0.05 16.01 15.03 15.8 15.03 9.23 0.13"/><polygon class="cls-26" points="9.41 0.05 9.53 0 9.59 0 16.22 15.03 16.01 15.03 9.41 0.05"/><polygon class="cls-30" points="9.8 0 16.43 15.03 16.22 15.03 9.59 0 9.8 0"/><polygon class="cls-31" points="10.01 0 16.63 15.03 16.43 15.03 9.8 0 10.01 0"/><polygon class="cls-31" points="10.22 0 16.84 15.03 16.63 15.03 10.01 0 10.22 0"/><polygon class="cls-32" points="10.42 0 17.05 15.03 16.84 15.03 10.22 0 10.42 0"/><polygon class="cls-33" points="10.63 0 17.26 15.03 17.05 15.03 10.42 0 10.63 0"/><polygon class="cls-34" points="10.84 0 17.46 15.03 17.26 15.03 10.63 0 10.84 0"/><polygon class="cls-35" points="11.05 0 17.67 15.03 17.46 15.03 10.84 0 11.05 0"/><polygon class="cls-36" points="11.25 0 17.88 15.03 17.67 15.03 11.05 0 11.25 0"/><polygon class="cls-36" points="11.46 0 18.09 15.03 17.88 15.03 11.25 0 11.46 0"/><polygon class="cls-37" points="11.67 0 18.29 15.03 18.09 15.03 11.46 0 11.67 0"/><polygon class="cls-38" points="11.88 0 18.5 15.03 18.29 15.03 11.67 0 11.88 0"/><polygon class="cls-39" points="12.08 0 18.71 15.03 18.5 15.03 11.88 0 12.08 0"/><polygon class="cls-40" points="12.29 0 18.92 15.03 18.71 15.03 12.08 0 12.29 0"/><polygon class="cls-41" points="12.5 0 19.12 15.03 18.92 15.03 12.29 0 12.5 0"/><polygon class="cls-41" points="12.71 0 19.33 15.03 19.12 15.03 12.5 0 12.71 0"/><polygon class="cls-42" points="12.91 0 19.54 15.03 19.33 15.03 12.71 0 12.91 0"/><polygon class="cls-43" points="13.12 0 19.75 15.03 19.54 15.03 12.91 0 13.12 0"/><polygon class="cls-43" points="13.33 0 19.95 15.03 19.75 15.03 13.12 0 13.33 0"/><polygon class="cls-44" points="13.54 0 20.16 15.03 19.95 15.03 13.33 0 13.54 0"/><polygon class="cls-44" points="13.74 0 20.37 15.03 20.16 15.03 13.54 0 13.74 0"/><polygon class="cls-45" points="13.95 0 20.58 15.03 20.37 15.03 13.74 0 13.95 0"/><polygon class="cls-46" points="14.16 0 20.78 15.03 20.58 15.03 13.95 0 14.16 0"/><polygon class="cls-46" points="14.37 0 20.99 15.03 20.78 15.03 14.16 0 14.37 0"/><polygon class="cls-47" points="14.57 0 21.2 15.03 20.99 15.03 14.37 0 14.57 0"/><polygon class="cls-48" points="14.78 0 21.41 15.03 21.2 15.03 14.57 0 14.78 0"/><polygon class="cls-49" points="14.99 0 21.61 15.03 21.41 15.03 14.78 0 14.99 0"/><polygon class="cls-50" points="15.2 0 21.82 15.03 21.61 15.03 14.99 0 15.2 0"/><polygon class="cls-51" points="15.4 0 22.03 15.03 21.82 15.03 15.2 0 15.4 0"/><polygon class="cls-52" points="15.61 0 22.24 15.03 22.03 15.03 15.4 0 15.61 0"/><polygon class="cls-53" points="15.82 0 22.44 15.03 22.24 15.03 15.61 0 15.82 0"/><polygon class="cls-54" points="16.03 0 22.65 15.03 22.44 15.03 15.82 0 16.03 0"/><polygon class="cls-55" points="16.23 0 22.86 15.03 22.65 15.03 16.03 0 16.23 0"/><polygon class="cls-56" points="16.44 0 23.07 15.03 22.86 15.03 16.23 0 16.44 0"/><polygon class="cls-56" points="16.65 0 23.27 15.03 23.07 15.03 16.44 0 16.65 0"/><polygon class="cls-57" points="16.86 0 23.48 15.03 23.27 15.03 16.65 0 16.86 0"/><polygon class="cls-58" points="17.06 0 23.69 15.03 23.48 15.03 16.86 0 17.06 0"/><polygon class="cls-59" points="17.27 0 23.9 15.03 23.69 15.03 17.06 0 17.27 0"/><polygon class="cls-60" points="17.48 0 24.1 15.03 23.9 15.03 17.27 0 17.48 0"/><polygon class="cls-61" points="17.69 0 24.31 15.03 24.1 15.03 17.48 0 17.69 0"/><polygon class="cls-62" points="17.89 0 24.52 15.03 24.31 15.03 17.69 0 17.89 0"/><polygon class="cls-63" points="18.1 0 24.73 15.03 24.52 15.03 17.89 0 18.1 0"/><polygon class="cls-64" points="18.31 0 24.93 15.03 24.73 15.03 18.1 0 18.31 0"/><polygon class="cls-65" points="18.52 0 25.14 15.03 24.93 15.03 18.31 0 18.52 0"/><polygon class="cls-66" points="18.72 0 25.35 15.03 25.14 15.03 18.52 0 18.72 0"/><polygon class="cls-67" points="18.93 0 25.56 15.03 25.35 15.03 18.72 0 18.93 0"/><polygon class="cls-68" points="19.14 0 25.76 15.03 25.56 15.03 18.93 0 19.14 0"/><polygon class="cls-68" points="19.35 0 25.97 15.03 25.76 15.03 19.14 0 19.35 0"/><polygon class="cls-69" points="19.55 0 26.18 15.03 25.97 15.03 19.35 0 19.55 0"/><polygon class="cls-70" points="19.76 0 26.39 15.03 26.18 15.03 19.55 0 19.76 0"/><polygon class="cls-71" points="19.97 0 26.59 15.03 26.39 15.03 19.76 0 19.97 0"/><polygon class="cls-72" points="20.18 0 26.8 15.03 26.59 15.03 19.97 0 20.18 0"/><polygon class="cls-72" points="20.38 0 27.01 15.03 26.8 15.03 20.18 0 20.38 0"/><polygon class="cls-73" points="20.59 0 27.22 15.03 27.01 15.03 20.38 0 20.59 0"/><polygon class="cls-74" points="20.8 0 27.42 15.03 27.22 15.03 20.59 0 20.8 0"/><polygon class="cls-75" points="21 0 27.63 15.03 27.42 15.03 20.8 0 21 0"/><polygon class="cls-76" points="21.21 0 27.84 15.03 27.63 15.03 21 0 21.21 0"/><polygon class="cls-77" points="21.42 0 28.05 15.03 27.84 15.03 21.21 0 21.42 0"/><polygon class="cls-78" points="21.63 0 28.25 15.03 28.05 15.03 21.42 0 21.63 0"/><polygon class="cls-79" points="21.84 0 28.46 15.03 28.25 15.03 21.63 0 21.84 0"/><polygon class="cls-80" points="22.04 0 28.67 15.03 28.46 15.03 21.84 0 22.04 0"/><polygon class="cls-80" points="22.25 0 28.88 15.03 28.67 15.03 22.04 0 22.25 0"/><polygon class="cls-81" points="22.46 0 29.08 15.03 28.88 15.03 22.25 0 22.46 0"/><polygon class="cls-82" points="22.66 0 29.29 15.03 29.08 15.03 22.46 0 22.66 0"/><polygon class="cls-83" points="22.87 0 29.5 15.03 29.29 15.03 22.66 0 22.87 0"/><polygon class="cls-84" points="23.08 0 29.71 15.03 29.5 15.03 22.87 0 23.08 0"/><polygon class="cls-85" points="23.29 0 29.91 15.03 29.71 15.03 23.08 0 23.29 0"/><polygon class="cls-85" points="23.5 0 30.12 15.03 29.91 15.03 23.29 0 23.5 0"/><polygon class="cls-86" points="23.7 0 30.33 15.03 30.12 15.03 23.5 0 23.7 0"/><polygon class="cls-87" points="23.91 0 30.54 15.03 30.33 15.03 23.7 0 23.91 0"/><polygon class="cls-88" points="24.12 0 30.74 15.03 30.54 15.03 23.91 0 24.12 0"/><polygon class="cls-89" points="24.32 0 30.95 15.03 30.74 15.03 24.12 0 24.32 0"/><polygon class="cls-90" points="24.53 0 31.16 15.03 30.95 15.03 24.32 0 24.53 0"/><polygon class="cls-90" points="24.74 0 31.37 15.03 31.16 15.03 24.53 0 24.74 0"/><polygon class="cls-91" points="24.95 0 31.57 15.03 31.37 15.03 24.74 0 24.95 0"/><polygon class="cls-91" points="25.16 0 31.78 15.03 31.57 15.03 24.95 0 25.16 0"/><polygon class="cls-92" points="25.36 0 31.99 15.03 31.78 15.03 25.16 0 25.36 0"/><polygon class="cls-93" points="25.57 0 32.2 15.03 31.99 15.03 25.36 0 25.57 0"/><polygon class="cls-94" points="25.78 0 32.4 15.03 32.2 15.03 25.57 0 25.78 0"/><polygon class="cls-94" points="25.95 0 32.58 15.03 32.4 15.03 25.78 0 25.95 0"/><polygon class="cls-95" points="26.13 0 32.76 15.03 32.58 15.03 25.95 0 26.13 0"/><polygon class="cls-95" points="26.3 0 32.93 15.03 32.76 15.03 26.13 0 26.3 0"/><polygon class="cls-96" points="26.48 0 33.11 15.03 32.93 15.03 26.3 0 26.48 0"/><polygon class="cls-97" points="26.66 0 33.28 15.03 33.11 15.03 26.48 0 26.66 0"/><polygon class="cls-98" points="26.83 0 33.46 15.03 33.28 15.03 26.66 0 26.83 0"/><polygon class="cls-99" points="27.01 0 33.63 15.03 33.46 15.03 26.83 0 27.01 0"/><polygon class="cls-99" points="27.18 0 33.81 15.03 33.63 15.03 27.01 0 27.18 0"/><polygon class="cls-100" points="27.36 0 33.99 15.03 33.81 15.03 27.18 0 27.36 0"/><polygon class="cls-100" points="27.54 0 34.16 15.03 33.99 15.03 27.36 0 27.54 0"/><polygon class="cls-101" points="27.71 0 34.34 15.03 34.16 15.03 27.54 0 27.71 0"/><polygon class="cls-102" points="27.89 0 34.51 15.03 34.34 15.03 27.71 0 27.89 0"/><polygon class="cls-103" points="28.06 0 34.69 15.03 34.51 15.03 27.89 0 28.06 0"/><polygon class="cls-104" points="28.24 0 34.87 15.03 34.69 15.03 28.06 0 28.24 0"/><polygon class="cls-105" points="28.42 0 35.04 15.03 34.87 15.03 28.24 0 28.42 0"/><polygon class="cls-105" points="28.59 0 35.22 15.03 35.04 15.03 28.42 0 28.59 0"/><polygon class="cls-106" points="28.77 0 35.39 15.03 35.22 15.03 28.59 0 28.77 0"/><polygon class="cls-107" points="28.94 0 35.57 15.03 35.39 15.03 28.77 0 28.94 0"/><polygon class="cls-108" points="29.12 0 35.74 15.03 35.57 15.03 28.94 0 29.12 0"/><polygon class="cls-109" points="29.3 0 35.92 15.03 35.74 15.03 29.12 0 29.3 0"/><polygon class="cls-109" points="29.47 0 36.1 15.03 35.92 15.03 29.3 0 29.47 0"/><polygon class="cls-110" points="29.65 0 36.27 15.03 36.1 15.03 29.47 0 29.65 0"/><polygon class="cls-111" points="29.82 0 36.45 15.03 36.27 15.03 29.65 0 29.82 0"/><polygon class="cls-111" points="30 0 36.62 15.03 36.45 15.03 29.82 0 30 0"/><polygon class="cls-112" points="30.17 0 36.8 15.03 36.62 15.03 30 0 30.17 0"/><polygon class="cls-113" points="30.35 0 36.98 15.03 36.8 15.03 30.17 0 30.35 0"/><polygon class="cls-114" points="30.53 0 37.15 15.03 36.98 15.03 30.35 0 30.53 0"/><polygon class="cls-115" points="30.7 0 37.33 15.03 37.15 15.03 30.53 0 30.7 0"/><polygon class="cls-115" points="30.88 0 37.5 15.03 37.33 15.03 30.7 0 30.88 0"/><polygon class="cls-116" points="31.05 0 37.68 15.03 37.5 15.03 30.88 0 31.05 0"/><polygon class="cls-117" points="31.23 0 37.85 15.03 37.68 15.03 31.05 0 31.23 0"/><polygon class="cls-118" points="31.41 0 38.03 15.03 37.85 15.03 31.23 0 31.41 0"/><polygon class="cls-119" points="31.58 0 38.21 15.03 38.03 15.03 31.41 0 31.58 0"/><polygon class="cls-120" points="31.76 0 38.38 15.03 38.21 15.03 31.58 0 31.76 0"/><polygon class="cls-120" points="31.93 0 38.56 15.03 38.38 15.03 31.76 0 31.93 0"/><polygon class="cls-121" points="32.11 0 38.73 15.03 38.56 15.03 31.93 0 32.11 0"/><polygon class="cls-122" points="32.28 0 38.91 15.03 38.73 15.03 32.11 0 32.28 0"/><polygon class="cls-122" points="32.46 0 39.09 15.03 38.91 15.03 32.28 0 32.46 0"/><polygon class="cls-123" points="32.64 0 39.26 15.03 39.09 15.03 32.46 0 32.64 0"/><polygon class="cls-124" points="32.81 0 39.44 15.03 39.26 15.03 32.64 0 32.81 0"/><polygon class="cls-125" points="32.99 0 39.61 15.03 39.44 15.03 32.81 0 32.99 0"/><polygon class="cls-126" points="33.16 0 39.79 15.03 39.61 15.03 32.99 0 33.16 0"/><polygon class="cls-127" points="33.34 0 39.97 15.03 39.79 15.03 33.16 0 33.34 0"/><polygon class="cls-128" points="33.52 0 40.14 15.03 39.97 15.03 33.34 0 33.52 0"/><polygon class="cls-129" points="33.69 0 40.32 15.03 40.14 15.03 33.52 0 33.69 0"/><polygon class="cls-130" points="33.87 0 40.49 15.03 40.32 15.03 33.69 0 33.87 0"/><polygon class="cls-131" points="34.04 0 40.67 15.03 40.49 15.03 33.87 0 34.04 0"/><polygon class="cls-132" points="34.22 0 40.84 15.03 40.67 15.03 34.04 0 34.22 0"/><polygon class="cls-133" points="34.4 0 41.02 15.03 40.84 15.03 34.22 0 34.4 0"/><polygon class="cls-134" points="34.57 0 41.2 15.03 41.02 15.03 34.4 0 34.57 0"/><polygon class="cls-135" points="34.75 0 41.37 15.03 41.2 15.03 34.57 0 34.75 0"/><polygon class="cls-135" points="34.92 0 41.55 15.03 41.37 15.03 34.75 0 34.92 0"/><polygon class="cls-136" points="35.1 0 41.72 15.03 41.55 15.03 34.92 0 35.1 0"/><polygon class="cls-137" points="35.27 0 41.9 15.03 41.72 15.03 35.1 0 35.27 0"/><polygon class="cls-137" points="35.45 0 42.08 15.03 41.9 15.03 35.27 0 35.45 0"/><polygon class="cls-138" points="35.63 0 42.25 15.03 42.08 15.03 35.45 0 35.63 0"/><polygon class="cls-139" points="35.8 0 42.43 15.03 42.25 15.03 35.63 0 35.8 0"/><polygon class="cls-140" points="35.98 0 42.6 15.03 42.43 15.03 35.8 0 35.98 0"/><polygon class="cls-140" points="36.15 0 42.78 15.03 42.6 15.03 35.98 0 36.15 0"/><polygon class="cls-141" points="36.33 0 42.95 15.03 42.78 15.03 36.15 0 36.33 0"/><polygon class="cls-142" points="36.51 0 43.13 15.03 42.95 15.03 36.33 0 36.51 0"/><polygon class="cls-143" points="36.68 0 43.31 15.03 43.13 15.03 36.51 0 36.68 0"/><polygon class="cls-144" points="36.86 0 43.48 15.03 43.31 15.03 36.68 0 36.86 0"/><polygon class="cls-145" points="37.03 0 43.66 15.03 43.48 15.03 36.86 0 37.03 0"/><polygon class="cls-146" points="37.21 0 43.83 15.03 43.66 15.03 37.03 0 37.21 0"/><polygon class="cls-147" points="37.38 0 44.01 15.03 43.83 15.03 37.21 0 37.38 0"/><polygon class="cls-148" points="37.56 0 44.19 15.03 44.01 15.03 37.38 0 37.56 0"/><polygon class="cls-149" points="37.74 0 44.36 15.03 44.19 15.03 37.56 0 37.74 0"/><polygon class="cls-150" points="37.91 0 44.54 15.03 44.36 15.03 37.74 0 37.91 0"/><polygon class="cls-151" points="38.09 0 44.71 15.03 44.54 15.03 37.91 0 38.09 0"/><polygon class="cls-151" points="38.26 0 44.89 15.03 44.71 15.03 38.09 0 38.26 0"/><polygon class="cls-152" points="38.44 0 45.06 15.03 44.89 15.03 38.26 0 38.44 0"/><polygon class="cls-153" points="38.62 0 45.24 15.03 45.06 15.03 38.44 0 38.62 0"/><polygon class="cls-154" points="38.79 0 45.42 15.03 45.24 15.03 38.62 0 38.79 0"/><polygon class="cls-155" points="38.97 0 45.59 15.03 45.42 15.03 38.79 0 38.97 0"/><polygon class="cls-156" points="39.14 0 45.77 15.03 45.59 15.03 38.97 0 39.14 0"/><polygon class="cls-157" points="39.32 0 45.95 15.03 45.77 15.03 39.14 0 39.32 0"/><polygon class="cls-157" points="39.49 0 46.12 15.03 45.95 15.03 39.32 0 39.49 0"/><polygon class="cls-158" points="39.67 0 46.3 15.03 46.12 15.03 39.49 0 39.67 0"/><polygon class="cls-159" points="39.85 0 46.47 15.03 46.3 15.03 39.67 0 39.85 0"/><polygon class="cls-159" points="40.02 0 46.65 15.03 46.47 15.03 39.85 0 40.02 0"/><polygon class="cls-160" points="40.2 0 46.82 15.03 46.65 15.03 40.02 0 40.2 0"/><polygon class="cls-161" points="40.38 0 47 15.03 46.82 15.03 40.2 0 40.38 0"/><polygon class="cls-162" points="40.55 0 47.18 15.03 47 15.03 40.38 0 40.55 0"/><polygon class="cls-162" points="40.73 0 47.35 15.03 47.18 15.03 40.55 0 40.73 0"/><polygon class="cls-163" points="40.9 0 47.53 15.03 47.35 15.03 40.73 0 40.9 0"/><polygon class="cls-164" points="41.08 0 47.7 15.03 47.53 15.03 40.9 0 41.08 0"/><polygon class="cls-164" points="41.25 0 47.88 15.03 47.7 15.03 41.08 0 41.25 0"/><polygon class="cls-165" points="41.43 0 48.05 15.03 47.88 15.03 41.25 0 41.43 0"/><polygon class="cls-166" points="41.61 0 48.23 15.03 48.05 15.03 41.43 0 41.61 0"/><polygon class="cls-167" points="41.78 0 48.41 15.03 48.23 15.03 41.61 0 41.78 0"/><polygon class="cls-168" points="41.96 0 48.58 15.03 48.41 15.03 41.78 0 41.96 0"/><polygon class="cls-169" points="42.13 0 48.76 15.03 48.58 15.03 41.96 0 42.13 0"/><polygon class="cls-170" points="42.31 0 48.94 15.03 48.76 15.03 42.13 0 42.31 0"/><polygon class="cls-171" points="42.48 0 49.11 15.03 48.94 15.03 42.31 0 42.48 0"/><polygon class="cls-171" points="42.66 0 49.29 15.03 49.11 15.03 42.48 0 42.66 0"/><polygon class="cls-172" points="42.84 0 49.46 15.03 49.29 15.03 42.66 0 42.84 0"/><polygon class="cls-173" points="43.01 0 49.64 15.03 49.46 15.03 42.84 0 43.01 0"/><polygon class="cls-3" points="43.19 0 49.81 15.03 49.64 15.03 43.01 0 43.19 0"/><polygon class="cls-3" points="56.52 12.72 51.28 15.03 49.81 15.03 43.19 0 56.52 0 56.52 12.72"/></g><g class="cls-174"><rect class="cls-28" y="6.12" width="3.3" height="2.54"/></g></svg>