<?xml version="1.0" encoding="utf-8"?>
<!-- Generator: Adobe Illustrator 21.1.0, SVG Export Plug-In . SVG Version: 6.00 Build 0)  -->
<svg version="1.1" id="Layer_1" xmlns="http://www.w3.org/2000/svg" xmlns:xlink="http://www.w3.org/1999/xlink" x="0px" y="0px"
	 viewBox="0 0 36 28" style="enable-background:new 0 0 36 28;" xml:space="preserve">
<style type="text/css">
	.st0{fill:url(#triangle_x5F_592_1_);}
	.st1{fill:url(#triangle_x5F_595_2_);}
	.st2{fill:url(#triangle_x5F_645_1_);}
	.st3{fill:url(#triangle_x5F_703_1_);}
	.st4{fill:url(#triangle_x5F_704_1_);}
	.st5{fill:url(#triangle_x5F_707_1_);}
	.st6{fill:url(#triangle_x5F_710_1_);}
	.st7{fill:url(#triangle_x5F_717_2_);}
	.st8{fill:url(#triangle_x5F_718_1_);}
	.st9{fill:url(#triangle_x5F_719_1_);}
	.st10{fill:url(#triangle_x5F_720_1_);}
	.st11{fill:url(#triangle_x5F_721_1_);}
	.st12{fill:url(#triangle_x5F_722_1_);}
	.st13{fill:url(#triangle_x5F_723_1_);}
	.st14{fill:url(#triangle_x5F_724_1_);}
	.st15{fill:url(#triangle_x5F_725_1_);}
	.st16{fill:url(#triangle_x5F_731_2_);}
	.st17{fill:url(#triangle_x5F_733_1_);}
	.st18{fill:url(#triangle_x5F_741_1_);}
	.st19{fill:url(#triangle_x5F_746_2_);}
	.st20{fill:url(#triangle_x5F_750_1_);}
	.st21{fill:url(#triangle_x5F_751_1_);}
	.st22{fill:url(#triangle_x5F_754_1_);}
	.st23{fill:url(#triangle_x5F_760_2_);}
	.st24{fill:url(#triangle_x5F_761_1_);}
	.st25{fill:url(#triangle_x5F_762_1_);}
	.st26{fill:url(#triangle_x5F_765_1_);}
	.st27{fill:url(#triangle_x5F_767_1_);}
	.st28{fill:url(#triangle_x5F_768_1_);}
	.st29{fill:url(#triangle_x5F_771_1_);}
	.st30{fill:url(#triangle_x5F_772_1_);}
</style>
<g>
	
		<linearGradient id="triangle_x5F_592_1_" gradientUnits="userSpaceOnUse" x1="5.2256" y1="-814.1946" x2="2.1421" y2="-818.6436" gradientTransform="matrix(1 0 0 -1 0 -814)">
		<stop  offset="0" style="stop-color:#F7E19F"/>
		<stop  offset="1" style="stop-color:#E4C06E"/>
	</linearGradient>
	<polygon id="triangle_x5F_592_3_" class="st0" points="5.2,0.2 2.1,1.3 2.1,1.3 2.1,8 2.1,8 	"/>
	
		<linearGradient id="triangle_x5F_595_2_" gradientUnits="userSpaceOnUse" x1="2.1421" y1="-815.2651" x2="1.071" y2="-819.0713" gradientTransform="matrix(1 0 0 -1 0 -814)">
		<stop  offset="0" style="stop-color:#D4AA64"/>
		<stop  offset="1" style="stop-color:#B9894F"/>
	</linearGradient>
	<polygon id="triangle_x5F_595_1_" class="st1" points="2.1,1.3 0,2.1 0,2.1 2.1,8 2.1,8 	"/>
	
		<linearGradient id="triangle_x5F_645_1_" gradientUnits="userSpaceOnUse" x1="19.5849" y1="-823.7026" x2="19.7119" y2="-831.1354" gradientTransform="matrix(1 0 0 -1 0 -814)">
		<stop  offset="0" style="stop-color:#F7C9DD"/>
		<stop  offset="1" style="stop-color:#F7D1E2"/>
	</linearGradient>
	<polygon id="triangle_x5F_645_3_" class="st2" points="19.6,9.7 16.6,15.5 16.6,15.5 22.8,18.7 22.8,18.7 	"/>
	
		<linearGradient id="triangle_x5F_703_1_" gradientUnits="userSpaceOnUse" x1="34.3798" y1="-823.6485" x2="34.2179" y2="-816.0801" gradientTransform="matrix(1 0 0 -1 0 -814)">
		<stop  offset="0" style="stop-color:#4C191D"/>
		<stop  offset="1" style="stop-color:#3F1518"/>
	</linearGradient>
	<polygon id="triangle_x5F_703_2_" class="st3" points="34.4,9.6 36,0.2 36,0.2 32.4,4 32.4,4 	"/>
	
		<linearGradient id="triangle_x5F_704_1_" gradientUnits="userSpaceOnUse" x1="36" y1="-814.1833" x2="32.6749" y2="-816.6396" gradientTransform="matrix(1 0 0 -1 0 -814)">
		<stop  offset="0" style="stop-color:#301315"/>
		<stop  offset="1" style="stop-color:#361217"/>
	</linearGradient>
	<polygon id="triangle_x5F_704_5_" class="st4" points="36,0.2 32.9,1.3 32.9,1.3 32.4,4 32.4,4 	"/>
	
		<linearGradient id="triangle_x5F_707_1_" gradientUnits="userSpaceOnUse" x1="33.6593" y1="-827.8545" x2="32.9526" y2="-823.3549" gradientTransform="matrix(1 0 0 -1 0 -814)">
		<stop  offset="0" style="stop-color:#805279"/>
		<stop  offset="1" style="stop-color:#66364E"/>
	</linearGradient>
	<polygon id="triangle_x5F_707_2_" class="st5" points="33.7,13.9 34.4,9.6 34.4,9.6 31.5,9.1 31.5,9.1 	"/>
	
		<linearGradient id="triangle_x5F_710_1_" gradientUnits="userSpaceOnUse" x1="34.3798" y1="-823.6484" x2="31.9807" y2="-820.5192" gradientTransform="matrix(1 0 0 -1 0 -814)">
		<stop  offset="0" style="stop-color:#511A1D"/>
		<stop  offset="1" style="stop-color:#4C1819"/>
	</linearGradient>
	<polygon id="triangle_x5F_710_2_" class="st6" points="34.4,9.6 32.4,4 32.4,4 31.5,9.1 31.5,9.1 	"/>
	
		<linearGradient id="triangle_x5F_717_2_" gradientUnits="userSpaceOnUse" x1="33.6593" y1="-827.8545" x2="30.9662" y2="-826.1866" gradientTransform="matrix(1 0 0 -1 0 -814)">
		<stop  offset="0" style="stop-color:#7B4463"/>
		<stop  offset="1" style="stop-color:#5A1D25"/>
	</linearGradient>
	<polygon id="triangle_x5F_717_1_" class="st7" points="33.7,13.9 31.5,9.1 31.5,9.1 30.4,15.3 30.4,15.3 	"/>
	
		<linearGradient id="triangle_x5F_718_1_" gradientUnits="userSpaceOnUse" x1="24.1127" y1="-836.4792" x2="27.5395" y2="-838.7352" gradientTransform="matrix(1 0 0 -1 0 -814)">
		<stop  offset="0" style="stop-color:#A9709E"/>
		<stop  offset="1" style="stop-color:#6C618B"/>
	</linearGradient>
	<polygon id="triangle_x5F_718_5_" class="st8" points="24.1,22.5 25.9,27.4 25.9,27.4 29.2,22.1 29.2,22.1 	"/>
	
		<linearGradient id="triangle_x5F_719_1_" gradientUnits="userSpaceOnUse" x1="25.88" y1="-841.4083" x2="29.8136" y2="-837.9093" gradientTransform="matrix(1 0 0 -1 0 -814)">
		<stop  offset="0" style="stop-color:#5B6996"/>
		<stop  offset="1" style="stop-color:#4E3F6D"/>
	</linearGradient>
	<polygon id="triangle_x5F_719_6_" class="st9" points="25.9,27.4 30.4,25.8 30.4,25.8 29.2,22.1 29.2,22.1 	"/>
	
		<linearGradient id="triangle_x5F_720_1_" gradientUnits="userSpaceOnUse" x1="30.4285" y1="-839.7565" x2="30.4524" y2="-837.688" gradientTransform="matrix(1 0 0 -1 0 -814)">
		<stop  offset="0" style="stop-color:#5A3F71"/>
		<stop  offset="1" style="stop-color:#5D3F73"/>
	</linearGradient>
	<polygon id="triangle_x5F_720_6_" class="st10" points="30.4,25.8 31.7,25.3 31.7,25.3 29.2,22.1 29.2,22.1 	"/>
	
		<linearGradient id="triangle_x5F_721_1_" gradientUnits="userSpaceOnUse" x1="22.7826" y1="-832.7271" x2="26.6557" y2="-836.2705" gradientTransform="matrix(1 0 0 -1 0 -814)">
		<stop  offset="0" style="stop-color:#F6D0E2"/>
		<stop  offset="1" style="stop-color:#F5C4DA"/>
	</linearGradient>
	<polygon id="triangle_x5F_721_6_" class="st11" points="22.8,18.7 24.1,22.5 24.1,22.5 29.2,22.1 29.2,22.1 	"/>
	
		<linearGradient id="triangle_x5F_722_1_" gradientUnits="userSpaceOnUse" x1="30.4069" y1="-829.3116" x2="25.9908" y2="-834.3943" gradientTransform="matrix(1 0 0 -1 0 -814)">
		<stop  offset="0" style="stop-color:#AB5D83"/>
		<stop  offset="1" style="stop-color:#EEBBD3"/>
	</linearGradient>
	<polygon id="triangle_x5F_722_7_" class="st12" points="30.4,15.3 22.8,18.7 22.8,18.7 29.2,22.1 29.2,22.1 	"/>
	
		<linearGradient id="triangle_x5F_723_1_" gradientUnits="userSpaceOnUse" x1="31.7059" y1="-839.3143" x2="31.429" y2="-831.9582" gradientTransform="matrix(1 0 0 -1 0 -814)">
		<stop  offset="0" style="stop-color:#6B5083"/>
		<stop  offset="1" style="stop-color:#765B8C"/>
	</linearGradient>
	<polygon id="triangle_x5F_723_7_" class="st13" points="31.7,25.3 33.7,13.9 33.7,13.9 29.2,22.1 29.2,22.1 	"/>
	
		<linearGradient id="triangle_x5F_724_1_" gradientUnits="userSpaceOnUse" x1="33.6593" y1="-827.8546" x2="29.8028" y2="-832.6868" gradientTransform="matrix(1 0 0 -1 0 -814)">
		<stop  offset="0" style="stop-color:#795D8D"/>
		<stop  offset="1" style="stop-color:#815B88"/>
	</linearGradient>
	<polygon id="triangle_x5F_724_6_" class="st14" points="33.7,13.9 30.4,15.3 30.4,15.3 29.2,22.1 29.2,22.1 	"/>
	
		<linearGradient id="triangle_x5F_725_1_" gradientUnits="userSpaceOnUse" x1="19.585" y1="-823.7026" x2="24.4761" y2="-829.9214" gradientTransform="matrix(1 0 0 -1 0 -814)">
		<stop  offset="0" style="stop-color:#F8D2E3"/>
		<stop  offset="1" style="stop-color:#F8D4E5"/>
	</linearGradient>
	<polygon id="triangle_x5F_725_6_" class="st15" points="19.6,9.7 22.8,18.7 22.8,18.7 26.2,13.1 26.2,13.1 	"/>
	
		<linearGradient id="triangle_x5F_731_2_" gradientUnits="userSpaceOnUse" x1="18.4014" y1="-820.3627" x2="21.9464" y2="-822.6603" gradientTransform="matrix(1 0 0 -1 0 -814)">
		<stop  offset="0" style="stop-color:#EAA4C1"/>
		<stop  offset="1" style="stop-color:#F3C5DC"/>
	</linearGradient>
	<polygon id="triangle_x5F_731_1_" class="st16" points="18.4,6.4 19.6,9.7 19.6,9.7 24.3,7.6 24.3,7.6 	"/>
	
		<linearGradient id="triangle_x5F_733_1_" gradientUnits="userSpaceOnUse" x1="19.5849" y1="-823.7026" x2="25.2388" y2="-824.3669" gradientTransform="matrix(1 0 0 -1 0 -814)">
		<stop  offset="0" style="stop-color:#EFC5DB"/>
		<stop  offset="1" style="stop-color:#DEADC3"/>
	</linearGradient>
	<polygon id="triangle_x5F_733_4_" class="st17" points="19.6,9.7 26.2,13.1 26.2,13.1 24.3,7.6 24.3,7.6 	"/>
	
		<linearGradient id="triangle_x5F_741_1_" gradientUnits="userSpaceOnUse" x1="18.4013" y1="-820.3627" x2="23.0284" y2="-817.8393" gradientTransform="matrix(1 0 0 -1 0 -814)">
		<stop  offset="0" style="stop-color:#EB5C4A"/>
		<stop  offset="1" style="stop-color:#C93229"/>
	</linearGradient>
	<polygon id="triangle_x5F_741_4_" class="st18" points="18.4,6.4 24.3,7.6 24.3,7.6 21.7,0.1 21.7,0.1 	"/>
	
		<linearGradient id="triangle_x5F_746_2_" gradientUnits="userSpaceOnUse" x1="18.4014" y1="-820.3627" x2="19.276" y2="-814.9444" gradientTransform="matrix(1 0 0 -1 0 -814)">
		<stop  offset="0" style="stop-color:#F2735C"/>
		<stop  offset="1" style="stop-color:#F16A55"/>
	</linearGradient>
	<polygon id="triangle_x5F_746_1_" class="st19" points="18.4,6.4 21.7,0.1 21.7,0.1 16.8,1.8 16.8,1.8 	"/>
	
		<linearGradient id="triangle_x5F_750_1_" gradientUnits="userSpaceOnUse" x1="16.6411" y1="-829.5438" x2="18.1953" y2="-822.9672" gradientTransform="matrix(1 0 0 -1 0 -814)">
		<stop  offset="0" style="stop-color:#F8D4E5"/>
		<stop  offset="1" style="stop-color:#F6BFD1"/>
	</linearGradient>
	<polygon id="triangle_x5F_750_2_" class="st20" points="16.6,15.5 19.6,9.7 19.6,9.7 16.8,8.2 16.8,8.2 	"/>
	
		<linearGradient id="triangle_x5F_751_1_" gradientUnits="userSpaceOnUse" x1="19.5849" y1="-823.7026" x2="17.6036" y2="-821.2971" gradientTransform="matrix(1 0 0 -1 0 -814)">
		<stop  offset="0" style="stop-color:#F4C1D9"/>
		<stop  offset="1" style="stop-color:#F5AAC4"/>
	</linearGradient>
	<polygon id="triangle_x5F_751_5_" class="st21" points="19.6,9.7 18.4,6.4 18.4,6.4 16.8,8.2 16.8,8.2 	"/>
	
		<linearGradient id="triangle_x5F_754_1_" gradientUnits="userSpaceOnUse" x1="18.4013" y1="-820.3628" x2="16.8044" y2="-819.0297" gradientTransform="matrix(1 0 0 -1 0 -814)">
		<stop  offset="0" style="stop-color:#F16B52"/>
		<stop  offset="1" style="stop-color:#EB5228"/>
	</linearGradient>
	<polygon id="triangle_x5F_754_2_" class="st22" points="18.4,6.4 16.8,1.8 16.8,1.8 16.8,8.2 16.8,8.2 	"/>
	
		<linearGradient id="triangle_x5F_760_2_" gradientUnits="userSpaceOnUse" x1="16.6412" y1="-829.5438" x2="14.9896" y2="-824.9886" gradientTransform="matrix(1 0 0 -1 0 -814)">
		<stop  offset="0" style="stop-color:#F6B1C2"/>
		<stop  offset="1" style="stop-color:#F5A1B8"/>
	</linearGradient>
	<polygon id="triangle_x5F_760_1_" class="st23" points="16.6,15.5 16.8,8.2 16.8,8.2 13.2,13.7 13.2,13.7 	"/>
	
		<linearGradient id="triangle_x5F_761_1_" gradientUnits="userSpaceOnUse" x1="5.3219" y1="-830.7484" x2="11.2697" y2="-838.3793" gradientTransform="matrix(1 0 0 -1 0 -814)">
		<stop  offset="0" style="stop-color:#C4567F"/>
		<stop  offset="1" style="stop-color:#9B4C71"/>
	</linearGradient>
	<polygon id="triangle_x5F_761_5_" class="st24" points="5.3,16.7 9.4,27.9 9.4,27.9 13.2,20.8 13.2,20.8 	"/>
	
		<linearGradient id="triangle_x5F_762_1_" gradientUnits="userSpaceOnUse" x1="9.3735" y1="-841.9395" x2="13.1661" y2="-837.695" gradientTransform="matrix(1 0 0 -1 0 -814)">
		<stop  offset="0" style="stop-color:#C3416F"/>
		<stop  offset="1" style="stop-color:#D34473"/>
	</linearGradient>
	<polygon id="triangle_x5F_762_7_" class="st25" points="9.4,27.9 13.2,26.6 13.2,26.6 13.2,20.8 13.2,20.8 	"/>
	
		<linearGradient id="triangle_x5F_765_1_" gradientUnits="userSpaceOnUse" x1="13.1735" y1="-827.7457" x2="9.2439" y2="-832.7839" gradientTransform="matrix(1 0 0 -1 0 -814)">
		<stop  offset="0" style="stop-color:#EC7080"/>
		<stop  offset="1" style="stop-color:#CD4D5F"/>
	</linearGradient>
	<polygon id="triangle_x5F_765_4_" class="st26" points="13.2,13.7 5.3,16.7 5.3,16.7 13.2,20.8 13.2,20.8 	"/>
	
		<linearGradient id="triangle_x5F_767_1_" gradientUnits="userSpaceOnUse" x1="16.6411" y1="-829.5438" x2="13.1698" y2="-831.2823" gradientTransform="matrix(1 0 0 -1 0 -814)">
		<stop  offset="0" style="stop-color:#F6B0CD"/>
		<stop  offset="1" style="stop-color:#F4A8C1"/>
	</linearGradient>
	<polygon id="triangle_x5F_767_4_" class="st27" points="16.6,15.5 13.2,13.7 13.2,13.7 13.2,20.8 13.2,20.8 	"/>
	
		<linearGradient id="triangle_x5F_768_1_" gradientUnits="userSpaceOnUse" x1="5.2256" y1="-814.1945" x2="5.7709" y2="-823.9048" gradientTransform="matrix(1 0 0 -1 0 -814)">
		<stop  offset="0" style="stop-color:#F5D896"/>
		<stop  offset="1" style="stop-color:#E7C07A"/>
	</linearGradient>
	<polygon id="triangle_x5F_768_6_" class="st28" points="5.2,0.2 2.1,8 2.1,8 9.4,11.8 9.4,11.8 	"/>
	
		<linearGradient id="triangle_x5F_771_1_" gradientUnits="userSpaceOnUse" x1="2.1421" y1="-822.0219" x2="7.3606" y2="-828.2681" gradientTransform="matrix(1 0 0 -1 0 -814)">
		<stop  offset="0" style="stop-color:#70372C"/>
		<stop  offset="1" style="stop-color:#7F5563"/>
	</linearGradient>
	<polygon id="triangle_x5F_771_4_" class="st29" points="2.1,8 5.3,16.7 5.3,16.7 9.4,11.8 9.4,11.8 	"/>
	
		<linearGradient id="triangle_x5F_772_1_" gradientUnits="userSpaceOnUse" x1="5.3217" y1="-830.7485" x2="11.2866" y2="-826.7665" gradientTransform="matrix(1 0 0 -1 0 -814)">
		<stop  offset="0" style="stop-color:#BF4156"/>
		<stop  offset="1" style="stop-color:#EB5A6B"/>
	</linearGradient>
	<polygon id="triangle_x5F_772_7_" class="st30" points="5.3,16.7 13.2,13.7 13.2,13.7 9.4,11.8 9.4,11.8 	"/>
</g>
</svg>
